<?xml version="1.0" encoding="UTF-8" standalone="no"?>
<svg
   xmlns:dc="http://purl.org/dc/elements/1.1/"
   xmlns:cc="http://creativecommons.org/ns#"
   xmlns:rdf="http://www.w3.org/1999/02/22-rdf-syntax-ns#"
   xmlns:svg="http://www.w3.org/2000/svg"
   xmlns="http://www.w3.org/2000/svg"
   xmlns:xlink="http://www.w3.org/1999/xlink"
   viewBox="0 0 128 128"
   style="display:inline;enable-background:new"
   version="1.0"
   id="svg11300"
   height="128"
   width="128">
  <title
     id="title4162">Adwaita Icon Template</title>
  <defs
     id="defs3">
    <filter
       id="filter922"
       style="color-interpolation-filters:sRGB">
      <feBlend
         id="feBlend924"
         in2="BackgroundImage"
         mode="screen" />
    </filter>
    <linearGradient
       gradientTransform="translate(0,640)"
       gradientUnits="userSpaceOnUse"
       y2="120"
       x2="416"
       y1="120"
       x1="384"
       id="linearGradient1053"
       xlink:href="#linearGradient1879" />
    <linearGradient
       id="linearGradient1879">
      <stop
         style="stop-color:#e8e7e4;stop-opacity:1"
         offset="0"
         id="stop1873" />
      <stop
         id="stop1875"
         offset="0.51104856"
         style="stop-color:#ffffff;stop-opacity:1" />
      <stop
         style="stop-color:#c2bfba;stop-opacity:1"
         offset="1"
         id="stop1877" />
    </linearGradient>
  </defs>
  <metadata
     id="metadata4">
    <rdf:RDF>
      <cc:Work
         rdf:about="">
        <dc:format>image/svg+xml</dc:format>
        <dc:type
           rdf:resource="http://purl.org/dc/dcmitype/StillImage" />
        <dc:creator>
          <cc:Agent>
            <dc:title>GNOME Design Team</dc:title>
          </cc:Agent>
        </dc:creator>
        <dc:source />
        <cc:license
           rdf:resource="http://creativecommons.org/licenses/by-sa/4.0/" />
        <dc:title>Adwaita Icon Template</dc:title>
        <dc:subject>
          <rdf:Bag />
        </dc:subject>
        <dc:date />
        <dc:rights>
          <cc:Agent>
            <dc:title />
          </cc:Agent>
        </dc:rights>
        <dc:publisher>
          <cc:Agent>
            <dc:title />
          </cc:Agent>
        </dc:publisher>
        <dc:identifier />
        <dc:relation />
        <dc:language />
        <dc:coverage />
        <dc:description />
        <dc:contributor>
          <cc:Agent>
            <dc:title />
          </cc:Agent>
        </dc:contributor>
      </cc:Work>
      <cc:License
         rdf:about="http://creativecommons.org/licenses/by-sa/4.0/">
        <cc:permits
           rdf:resource="http://creativecommons.org/ns#Reproduction" />
        <cc:permits
           rdf:resource="http://creativecommons.org/ns#Distribution" />
        <cc:requires
           rdf:resource="http://creativecommons.org/ns#Notice" />
        <cc:requires
           rdf:resource="http://creativecommons.org/ns#Attribution" />
        <cc:permits
           rdf:resource="http://creativecommons.org/ns#DerivativeWorks" />
        <cc:requires
           rdf:resource="http://creativecommons.org/ns#ShareAlike" />
      </cc:License>
    </rdf:RDF>
  </metadata>
  <g
     transform="translate(0,-172)"
     style="display:inline"
     id="layer1">
    <g
       style="display:none"
       id="layer2">
      <text
         id="context"
         y="-279.69958"
         x="7.8559437"
         style="font-style:normal;font-variant:normal;font-weight:normal;font-stretch:normal;font-size:18.30133247px;line-height:125%;font-family:Cantarell;-inkscape-font-specification:'Cantarell, Normal';text-align:start;writing-mode:lr-tb;text-anchor:start;display:inline;fill:#000000;fill-opacity:1;stroke:none;enable-background:new"
         xml:space="preserve"><tspan
           y="-279.69958"
           x="7.8559437"
           id="tspan2716">apps</tspan></text>
      <text
         xml:space="preserve"
         style="font-style:normal;font-variant:normal;font-weight:bold;font-stretch:normal;font-size:18.30133247px;line-height:125%;font-family:Cantarell;-inkscape-font-specification:'Cantarell, Bold';text-align:start;writing-mode:lr-tb;text-anchor:start;display:inline;fill:#000000;fill-opacity:1;stroke:none;enable-background:new"
         x="7.2647686"
         y="-253.90063"
         id="text3021"><tspan
           id="tspan3023"
           x="7.2647686"
           y="-253.90063">org.gnome.Contacts</tspan></text>
      <g
         id="g12027"
         transform="matrix(7.9911709,0,0,8.0036407,-167.7909,-4846.0776)"
         style="display:inline;fill:#000000;enable-background:new" />
      <rect
         y="172"
         x="9.2651362e-08"
         height="128"
         width="128"
         id="rect13805"
         style="display:inline;overflow:visible;visibility:visible;fill:#f0f0f0;fill-opacity:1;fill-rule:nonzero;stroke:none;stroke-width:0.5;marker:none;enable-background:accumulate" />
      <g
         transform="matrix(0.25,0,0,0.25,6.9488522e-8,225)"
         id="g1168"
         style="display:inline;enable-background:new">
        <rect
           style="opacity:0.1;fill:#2864b0;fill-opacity:1;stroke:none;stroke-width:1;stroke-linecap:butt;stroke-linejoin:miter;stroke-miterlimit:4;stroke-dasharray:none;stroke-dashoffset:0;stroke-opacity:1;marker:none;marker-start:none;marker-mid:none;marker-end:none;paint-order:normal"
           id="rect1110"
           width="319.99979"
           height="448"
           x="96"
           y="-180"
           rx="32"
           ry="32" />
        <rect
           style="display:inline;opacity:0.1;fill:#2864b0;fill-opacity:1;stroke:none;stroke-width:1;stroke-linecap:butt;stroke-linejoin:miter;stroke-miterlimit:4;stroke-dasharray:none;stroke-dashoffset:0;stroke-opacity:1;marker:none;marker-start:none;marker-mid:none;marker-end:none;paint-order:normal;enable-background:new"
           id="rect1110-8"
           width="416"
           height="416"
           x="48"
           y="-164"
           rx="32"
           ry="32" />
        <rect
           style="display:inline;opacity:0.1;fill:#2864b0;fill-opacity:1;stroke:none;stroke-width:1;stroke-linecap:butt;stroke-linejoin:miter;stroke-miterlimit:4;stroke-dasharray:none;stroke-dashoffset:0;stroke-opacity:1;marker:none;marker-start:none;marker-mid:none;marker-end:none;paint-order:normal;enable-background:new"
           id="rect1110-8-9"
           width="448"
           height="320"
           x="32"
           y="-116"
           rx="32"
           ry="32" />
        <circle
           style="opacity:0.1;fill:#2864b0;fill-opacity:1;stroke:none;stroke-width:1;stroke-linecap:butt;stroke-linejoin:miter;stroke-miterlimit:4;stroke-dasharray:none;stroke-dashoffset:0;stroke-opacity:1;marker:none;marker-start:none;marker-mid:none;marker-end:none;paint-order:normal"
           id="path1142"
           r="240"
           cy="44"
           cx="256" />
      </g>
    </g>
    <g
       style="display:none;filter:url(#filter922)"
       id="layer3">
      <path
         id="rect868-3-60"
         d="m 128,-140 c -8.14851,0 -15.56132,3.01984 -21.19922,8 H 96 v 24 352 c 0,16 12.57254,32 32.33984,32 H 384 c 17.728,0 32,-14.272 32,-32 v -64 c 17.728,0 32,-14.2781 32,-32.01367 V 116.01367 C 448,110.16956 446.44277,104.70615 443.73047,100 446.44277,95.29385 448,89.83044 448,83.98633 V 52.01367 C 448,46.16956 446.44277,40.70615 443.73047,36 446.44277,31.29385 448,25.83044 448,19.98633 V -11.98633 C 448,-17.83044 446.44277,-23.29385 443.73047,-28 446.44277,-32.70615 448,-38.16956 448,-44.01367 V -75.98633 C 448,-93.7219 433.728,-108 416,-108 c 0,-17.728 -14.272,-32 -32,-32 z"
         style="display:inline;opacity:0.15;fill:#010101;fill-opacity:1;stroke:none;stroke-width:23.99999809;stroke-linecap:round;stroke-linejoin:miter;stroke-miterlimit:4;stroke-dasharray:none;stroke-dashoffset:0;stroke-opacity:1;marker:none;marker-start:none;marker-mid:none;marker-end:none;paint-order:normal;enable-background:new" />
    </g>
    <g
       style="display:inline"
       id="layer9">
      <rect
         ry="8.0034189"
         rx="8"
         y="196"
         x="95.999977"
         height="24"
         width="16"
         id="rect1036-36"
         style="display:inline;opacity:1;fill:#f9f06b;fill-opacity:1;stroke:none;stroke-width:5.99999952;stroke-linecap:round;stroke-linejoin:miter;stroke-miterlimit:4;stroke-dasharray:none;stroke-dashoffset:0;stroke-opacity:1;marker:none;marker-start:none;marker-mid:none;marker-end:none;paint-order:normal;enable-background:new" />
      <rect
         ry="8.0034189"
         rx="8"
         y="212"
         x="95.999977"
         height="24"
         width="16"
         id="rect1036-3-7"
         style="display:inline;opacity:1;fill:#26a269;fill-opacity:1;stroke:none;stroke-width:5.99999952;stroke-linecap:round;stroke-linejoin:miter;stroke-miterlimit:4;stroke-dasharray:none;stroke-dashoffset:0;stroke-opacity:1;marker:none;marker-start:none;marker-mid:none;marker-end:none;paint-order:normal;enable-background:new" />
      <rect
         ry="8.0034189"
         rx="8"
         y="228"
         x="95.999977"
         height="24"
         width="16"
         id="rect1036-3-3-5"
         style="display:inline;opacity:1;fill:#8f5aa0;fill-opacity:1;stroke:none;stroke-width:5.99999952;stroke-linecap:round;stroke-linejoin:miter;stroke-miterlimit:4;stroke-dasharray:none;stroke-dashoffset:0;stroke-opacity:1;marker:none;marker-start:none;marker-mid:none;marker-end:none;paint-order:normal;enable-background:new" />
      <rect
         ry="8.0034189"
         rx="8"
         y="244"
         x="95.999977"
         height="24"
         width="16"
         id="rect1036-3-3-6-3"
         style="display:inline;opacity:1;fill:#f66151;fill-opacity:1;stroke:none;stroke-width:5.99999952;stroke-linecap:round;stroke-linejoin:miter;stroke-miterlimit:4;stroke-dasharray:none;stroke-dashoffset:0;stroke-opacity:1;marker:none;marker-start:none;marker-mid:none;marker-end:none;paint-order:normal;enable-background:new" />
      <g
         transform="matrix(0.25,0,0,0.25,-2.6633392e-5,65)"
         id="g1002"
         style="display:inline;enable-background:new">
        <path
           style="display:inline;opacity:1;fill:#1d60b5;fill-opacity:1;stroke:none;stroke-width:24;stroke-linecap:butt;stroke-linejoin:miter;stroke-miterlimit:4;stroke-dasharray:none;stroke-dashoffset:0;stroke-opacity:1;marker:none;marker-start:none;marker-mid:none;marker-end:none;paint-order:normal;enable-background:new"
           d="m 96,540 v 368 h 288 c 17.728,0 32,-14.272 32,-32 V 572 c 0,-17.728 -14.272,-32 -32,-32 z"
           id="rect954-3" />
        <path
           style="display:inline;opacity:1;fill:url(#linearGradient1053);fill-opacity:1;stroke:none;stroke-width:24;stroke-linecap:butt;stroke-linejoin:miter;stroke-miterlimit:4;stroke-dasharray:none;stroke-dashoffset:0;stroke-opacity:1;marker:none;marker-start:none;marker-mid:none;marker-end:none;paint-order:normal;enable-background:new"
           d="m 104,620 v 280 h 280 c 17.728,0 32,-14.272 32,-32 V 652 c 0,-17.728 -14.272,-32 -32,-32 z"
           id="rect954-3-6" />
        <path
           style="display:inline;opacity:1;fill:#2864b0;fill-opacity:1;stroke:none;stroke-width:24;stroke-linecap:butt;stroke-linejoin:miter;stroke-miterlimit:4;stroke-dasharray:none;stroke-dashoffset:0;stroke-opacity:1;marker:none;marker-start:none;marker-mid:none;marker-end:none;paint-order:normal;enable-background:new"
           d="m 96,540 v 336 h 288 c 17.728,0 32,-14.272 32,-32 V 572 c 0,-17.728 -14.272,-32 -32,-32 z"
           id="rect954-3-2" />
        <path
           style="display:inline;opacity:1;fill:#3584e4;fill-opacity:1;stroke:none;stroke-width:24;stroke-linecap:butt;stroke-linejoin:miter;stroke-miterlimit:4;stroke-dasharray:none;stroke-dashoffset:0;stroke-opacity:1;marker:none;marker-start:none;marker-mid:none;marker-end:none;paint-order:normal;enable-background:new"
           d="m 96,460 v 408 h 288 c 17.728,0 32,-14.272 32,-32 V 492 c 0,-17.728 -14.272,-32 -32,-32 z"
           id="rect954-3-2-9-0-3" />
        <path
           id="rect1366-2"
           d="m 104,460.00003 h 8 v 408 h -8 z"
           style="display:inline;opacity:0.18699999;fill:#ffffff;fill-opacity:1;stroke:none;stroke-width:24;stroke-linecap:butt;stroke-linejoin:miter;stroke-miterlimit:4;stroke-dasharray:none;stroke-dashoffset:0;stroke-opacity:1;marker:none;marker-start:none;marker-mid:none;marker-end:none;paint-order:normal;enable-background:new" />
      </g>
      <path
         id="path882-5"
         style="font-style:normal;font-variant:normal;font-weight:bold;font-stretch:normal;font-size:185.54548645px;line-height:1.25;font-family:sans-serif;-inkscape-font-specification:'sans-serif Bold';letter-spacing:0px;word-spacing:0px;display:inline;opacity:1;fill:#ffffff;fill-opacity:1;stroke:none;stroke-width:0.24999999;enable-background:new"
         d="m 61.741853,232.09019 q 0,2.7859 1.17777,4.39403 1.20043,1.60812 3.2389,1.60812 2.01581,0 3.21624,-1.60812 1.20043,-1.63077 1.20043,-4.39403 0,-2.7406 -1.22308,-4.32607 -1.20043,-1.60812 -3.23889,-1.60812 -1.99317,0 -3.1936,1.60812 -1.17777,1.58547 -1.17777,4.32607 z m 9.28633,6.81753 q -0.67949,1.60813 -2.19701,2.51411 -1.49487,0.88333 -3.51069,0.88333 -3.89573,0 -6.34188,-2.80855 -2.42351,-2.8312 -2.42351,-7.36112 0,-4.52992 2.44615,-7.36112 2.44616,-2.83119 6.31924,-2.83119 2.01582,0 3.51069,0.90598 1.51752,0.90598 2.19701,2.5141 v -2.96709 h 4.73377 v 15.69617 q 2.80855,-0.43034 4.41667,-2.6953 1.60812,-2.28761 1.60812,-5.8436 0,-2.26496 -0.65684,-4.23547 -0.65684,-1.99317 -1.99316,-3.64659 -2.15172,-2.76325 -5.39061,-4.25812 -3.21624,-1.49488 -6.97607,-1.49488 -2.62736,0 -5.02821,0.70214 -2.40086,0.67949 -4.43932,2.01581 -3.35214,2.21967 -5.23206,5.753 -1.85727,3.51069 -1.85727,7.61027 0,3.37479 1.20043,6.34188 1.22308,2.94445 3.51069,5.20941 2.26496,2.21966 5.18676,3.37479 2.94444,1.17778 6.27393,1.17778 2.85385,0 5.7077,-1.06453 2.85385,-1.06453 4.86966,-2.8765 l 2.42351,3.66923 q -2.8312,2.19701 -6.18334,3.35214 -3.32949,1.17778 -6.77223,1.17778 -4.19017,0 -7.90471,-1.49487 -3.71453,-1.47222 -6.61368,-4.30342 -2.89915,-2.8312 -4.41667,-6.54574 -1.51752,-3.73718 -1.51752,-8.01795 0,-4.12223 1.54017,-7.85941 1.54017,-3.73719 4.39402,-6.56839 2.85385,-2.80855 6.63633,-4.34872 3.80514,-1.54017 7.88206,-1.54017 5.07351,0 9.21839,1.94786 4.14487,1.92522 6.93077,5.5718 1.69872,2.21967 2.55941,4.82437 0.88333,2.58205 0.88333,5.4359 0,6.13804 -3.69188,9.53548 -3.69189,3.39744 -10.41882,3.39744 h -0.88333 z" />
    </g>
  </g>
</svg>
