<?xml version="1.0" encoding="UTF-8" standalone="no"?>
<svg height="16px" viewBox="0 0 16 16" width="16px" version="1.1" id="svg89887" sodipodi:docname="external-link-symbolic.svg" inkscape:version="1.2.1 (9c6d41e410, 2022-07-14)" xmlns:inkscape="http://www.inkscape.org/namespaces/inkscape" xmlns:sodipodi="http://sodipodi.sourceforge.net/DTD/sodipodi-0.dtd" xmlns="http://www.w3.org/2000/svg" xmlns:svg="http://www.w3.org/2000/svg">
  <defs id="defs89891"/>
  <sodipodi:namedview id="namedview89889" pagecolor="#ffffff" bordercolor="#666666" borderopacity="1.0" inkscape:showpageshadow="2" inkscape:pageopacity="0.0" inkscape:pagecheckerboard="0" inkscape:deskcolor="#d1d1d1" showgrid="true" inkscape:zoom="14.75" inkscape:cx="4.4067797" inkscape:cy="6.2372881" inkscape:current-layer="svg89887">
    <inkscape:grid type="xygrid" id="grid90073"/>
  </sodipodi:namedview>
  <filter id="a" height="1" width="1" x="0" y="0">
    <feColorMatrix in="SourceGraphic" type="matrix" values="0 0 0 0 1 0 0 0 0 1 0 0 0 0 1 0 0 0 1 0" id="feColorMatrix89780"/>
  </filter>
  <mask id="b">
    <g filter="url(#a)" id="g89785">
      <rect fill-opacity="0.55" height="16" width="16" id="rect89783"/>
    </g>
  </mask>
  <clipPath id="c">
    <rect height="152" width="192" id="rect89788"/>
  </clipPath>
  <mask id="d">
    <g filter="url(#a)" id="g89793">
      <rect fill-opacity="0.55" height="16" width="16" id="rect89791"/>
    </g>
  </mask>
  <clipPath id="e">
    <rect height="152" width="192" id="rect89796"/>
  </clipPath>
  <mask id="f">
    <g filter="url(#a)" id="g89801">
      <rect fill-opacity="0.55" height="16" width="16" id="rect89799"/>
    </g>
  </mask>
  <clipPath id="g">
    <rect height="152" width="192" id="rect89804"/>
  </clipPath>
  <mask id="h">
    <g filter="url(#a)" id="g89809">
      <rect fill-opacity="0.3" height="16" width="16" id="rect89807"/>
    </g>
  </mask>
  <clipPath id="i">
    <rect height="152" width="192" id="rect89812"/>
  </clipPath>
  <mask id="j">
    <g filter="url(#a)" id="g89817">
      <rect fill-opacity="0.3" height="16" width="16" id="rect89815"/>
    </g>
  </mask>
  <clipPath id="k">
    <rect height="152" width="192" id="rect89820"/>
  </clipPath>
  <mask id="l">
    <g filter="url(#a)" id="g89825">
      <rect fill-opacity="0.3" height="16" width="16" id="rect89823"/>
    </g>
  </mask>
  <clipPath id="m">
    <rect height="152" width="192" id="rect89828"/>
  </clipPath>
  <path id="path193961" style="fill:#222222;fill-opacity:1" d="M 3,2 C 1.338,2 0,3.338 0,5 v 8 c 0,1.662 1.338,3 3,3 h 8 c 1.662,0 3,-1.338 3,-3 V 9 C 13.9998,8.4477 13.5522,8 13,8 12.4478,8 12.0002,8.4477 12,9 v 4 c 0,0.554 -0.446,1 -1,1 H 3 C 2.446,14 2,13.554 2,13 V 5 C 2,4.446 2.446,4 3,4 H 7 C 7.5523,4 8,3.5523 8,3 8,2.4477 7.5523,2 7,2 Z M 10,0 C 9.4477,0 9,0.4477 9,1 9,1.5523 9.4477,2 10,2 h 2.584 L 7.293,7.291 c -0.3917,0.3907 -0.3917,1.0253 0,1.416 0.3905,0.3904 1.0236,0.3904 1.4141,0 L 14,3.4141 V 6 c 0,0.5523 0.4477,1 1,1 0.5523,0 1,-0.4477 1,-1 V 1 C 15.9996,0.913 15.988,0.8262 15.965,0.7422 15.942,0.6572 15.909,0.576 15.865,0.5 15.822,0.424 15.768,0.3548 15.7068,0.293 15.6918,0.281 15.6758,0.269 15.6598,0.258 15.6048,0.208 15.5433,0.165 15.4782,0.1291 c -0.037,-0.019 -0.076,-0.035 -0.1152,-0.049 -0.051,-0.021 -0.1029,-0.037 -0.1563,-0.049 -0.04,-0.01 -0.08,-0.014 -0.1211,-0.018 -0.029,-0.01 -0.057,-0.01 -0.086,-0.012 z" sodipodi:nodetypes="sssssscscsssssssssscsscccccsssccscccccccc" inkscape:label="arrow box link external web http diagonal">
    <title id="title8267">external-link</title>
  </path>
</svg>